<svg xmlns="http://www.w3.org/2000/svg" viewBox="0 0 121.3 25.06"><defs><style>.cls-1{fill:#ffffff;}</style></defs><title>enerdot_logo</title><g id="레이어_2" data-name="레이어 2"><g id="레이어_1-2" data-name="레이어 1"><path class="cls-1" d="M19.23,7.47,9,17.67a5.29,5.29,0,0,1-7.47,0h0a5.26,5.26,0,0,1,0-7.45v0L11.76,0l3,3L4.6,13.23a1,1,0,0,0,0,1.41h0a1,1,0,0,0,1.41,0l10.2-10.2ZM20.76,9l-7.41,7.41a2.14,2.14,0,0,0,0,3h0a2.14,2.14,0,0,0,3,0L23.79,12ZM11.37,24.45a2.14,2.14,0,1,0-3,0l0,0A2.14,2.14,0,0,0,11.37,24.45ZM29.7,4.82H40.16V7.38H32.79V11H39.2v2.59H32.79v4.13h7.6v2.59H29.7Zm12.53,0H45.1l6.08,10.29V4.82H54V20.26H51.18L45.1,9.94V20.26H42.23ZM56,4.82H66.48V7.38H59.11V11h6.41v2.59H59.11v4.13h7.6v2.59H56Zm20.8,15.44-3.17-5.85H71.5v5.85H68.42V4.82H73.8c3.23,0,5.8,1.12,5.8,4.67a4.39,4.39,0,0,1-2.94,4.44l3.61,6.33ZM71.5,12h2c2,0,3.06-.83,3.06-2.48S75.48,7.29,73.5,7.29h-2Zm10-7.18h4.24c4.72,0,7.64,2.44,7.64,7.65S90.5,20.26,86,20.26H81.54Zm4,13c2.88,0,4.68-1.54,4.68-5.3s-1.8-5.19-4.68-5.19h-1V17.77Zm9.58-5.35c0-5,2.82-8,6.91-8s6.91,3,6.91,8-2.82,8.08-6.91,8.08S95.12,17.48,95.12,12.47Zm10.66,0c0-3.31-1.46-5.3-3.75-5.3s-3.76,2-3.76,5.3,1.46,5.41,3.76,5.41S105.78,15.77,105.78,12.47Zm8-5.09h-4.34V4.82H121.3V7.38h-4.38V20.26h-3.09Z"/></g></g></svg>