<svg xmlns="http://www.w3.org/2000/svg" viewBox="0 0 89.49 18.5"><defs><style>.cls-1{fill:#999;}</style></defs><title>자산 12</title><g id="레이어_2" data-name="레이어 2"><g id="레이어_1-2" data-name="레이어 1"><path class="cls-1" d="M14.18,5.51,6.65,13A3.9,3.9,0,0,1,1.14,7.52L8.67,0,10.9,2.23,3.38,9.76a.74.74,0,1,0,1,1l7.52-7.52Zm1.13,1.13L9.83,12.11a1.58,1.58,0,1,0,2.24,2.23l5.47-5.46ZM8.38,18a1.6,1.6,0,0,0,0-2.24A1.58,1.58,0,0,0,6.14,18a1.6,1.6,0,0,0,2.24,0"/><polygon class="cls-1" points="21.9 3.55 29.62 3.55 29.62 5.45 24.18 5.45 24.18 8.08 28.91 8.08 28.91 9.99 24.18 9.99 24.18 13.04 29.79 13.04 29.79 14.95 21.9 14.95 21.9 3.55"/><polygon class="cls-1" points="31.14 3.55 33.26 3.55 37.74 11.15 37.74 3.55 39.86 3.55 39.86 14.95 37.74 14.95 33.26 7.33 33.26 14.95 31.14 14.95 31.14 3.55"/><polygon class="cls-1" points="41.32 3.55 49.04 3.55 49.04 5.45 43.6 5.45 43.6 8.08 48.33 8.08 48.33 9.99 43.6 9.99 43.6 13.04 49.21 13.04 49.21 14.95 41.32 14.95 41.32 3.55"/><path class="cls-1" d="M56.67,15l-2.34-4.31H52.74V15H50.46V3.55h4c2.38,0,4.28.83,4.28,3.45a3.27,3.27,0,0,1-2.17,3.28L59.21,15ZM52.74,8.83h1.48c1.46,0,2.26-.61,2.26-1.83s-.8-1.65-2.26-1.65H52.74Z"/><path class="cls-1" d="M60.15,3.55h3.13c3.48,0,5.63,1.81,5.63,5.65S66.76,15,63.4,15H60.15Zm3,9.56c2.12,0,3.45-1.14,3.45-3.91s-1.33-3.83-3.45-3.83h-.71v7.74Z"/><path class="cls-1" d="M70.17,9.2c0-3.71,2.08-5.86,5.1-5.86s5.09,2.17,5.09,5.86-2.08,6-5.09,6-5.1-2.26-5.1-6M78,9.2C78,6.76,77,5.29,75.27,5.29S72.49,6.76,72.49,9.2s1.08,4,2.78,4S78,11.64,78,9.2"/><polygon class="cls-1" points="83.98 5.45 80.77 5.45 80.77 3.55 89.49 3.55 89.49 5.45 86.25 5.45 86.25 14.95 83.98 14.95 83.98 5.45"/></g></g></svg>