<svg xmlns="http://www.w3.org/2000/svg" viewBox="0 0 169.88 30.97"><defs><style>.cls-1{fill:#07f;}</style></defs><title>자산 2</title><g id="레이어_2" data-name="레이어 2"><g id="레이어_1-2" data-name="레이어 1"><path class="cls-1" d="M137.33,4.21Q133.51.53,126.13.53H114.35c-1.85,0-2.77.81-2.77,2.44V28c0,1.62.92,2.43,2.77,2.43h11.78q7.37,0,11.2-3.67t3.84-11.26Q141.17,7.89,137.33,4.21Zm-4.18,18.7c-1.45,1.54-3.79,2.3-7,2.3h-8.07c-.43,0-.64-.17-.64-.53V6.29c0-.35.21-.53.64-.53h8.07q4.89,0,7.05,2.28t2.15,7.43Q135.33,20.6,133.15,22.91Z"/><path class="cls-1" d="M69.52,6.51A6.24,6.24,0,0,1,71.4,1.79Q73.28,0,77.19,0a8.17,8.17,0,0,1,5.27,1.48A10,10,0,0,1,85.3,5.54l9.75,19.1a2.67,2.67,0,0,0,.79.88,2.24,2.24,0,0,0,1.34.36,2.12,2.12,0,0,0,1.46-.47,1.53,1.53,0,0,0,.52-1.21v-21A2.78,2.78,0,0,1,102.08.53h0a2.78,2.78,0,0,1,2.92,2.62V24.42a6.24,6.24,0,0,1-1.91,4.76C101.87,30.38,100,31,97.38,31a11.17,11.17,0,0,1-3-.37,6.78,6.78,0,0,1-2.27-1.11,7.47,7.47,0,0,1-1.66-1.75,11.58,11.58,0,0,1-1.19-2.3L79.47,6.34a2.18,2.18,0,0,0-2.08-1.29,2.2,2.2,0,0,0-1.51.47,1.59,1.59,0,0,0-.52,1.26v21a2.94,2.94,0,0,1-5.84,0Z"/><path class="cls-1" d="M34.59,3.1A2.73,2.73,0,0,1,37.46.53h.19A2.73,2.73,0,0,1,40.52,3.1V20.52A4.52,4.52,0,0,0,41.84,24a6.09,6.09,0,0,0,4.23,1.21H52A6,6,0,0,0,56.16,24a4.5,4.5,0,0,0,1.34-3.48V3.1a2.89,2.89,0,0,1,5.74,0V20.92c0,3.16-.91,5.53-2.72,7.13S56,30.44,52.4,30.44h-7q-10.78,0-10.78-9.52Z"/><path class="cls-1" d="M23.75,20.1a2.74,2.74,0,0,0-.84-1.2,4.5,4.5,0,0,0-1.61-.82,8.79,8.79,0,0,0-2.55-.31H11A16.82,16.82,0,0,1,5.49,17a8.66,8.66,0,0,1-3.34-2A6.69,6.69,0,0,1,.47,12.23,10.75,10.75,0,0,1,0,9.13,10.05,10.05,0,0,1,.57,5.69,6.83,6.83,0,0,1,2.4,3a8.71,8.71,0,0,1,3.24-1.8A15.73,15.73,0,0,1,10.39.53h14a2.78,2.78,0,0,1,2.92,2.62,2.77,2.77,0,0,1-2.92,2.61H10.19a4.63,4.63,0,0,0-3.31,1,3.38,3.38,0,0,0-1,2.55,3.9,3.9,0,0,0,.22,1.3,2.77,2.77,0,0,0,.79,1.16,4.06,4.06,0,0,0,1.51.79,8.23,8.23,0,0,0,2.43.29H18.6a16.92,16.92,0,0,1,5.6.78,9.34,9.34,0,0,1,3.44,2,6.58,6.58,0,0,1,1.73,2.84,11.36,11.36,0,0,1,.47,3.19,9.85,9.85,0,0,1-.6,3.5,6.94,6.94,0,0,1-1.88,2.77,8.92,8.92,0,0,1-3.29,1.84,15.67,15.67,0,0,1-4.87.66H3.51A2.78,2.78,0,0,1,.59,27.83a2.77,2.77,0,0,1,2.92-2.61H19.4a5,5,0,0,0,3.49-1A3.49,3.49,0,0,0,24,21.49,3.92,3.92,0,0,0,23.75,20.1Z"/><path class="cls-1" d="M145.11.53h.13a2.91,2.91,0,0,1,2.35,1.14l8.52,11.67,8.62-11.68A2.89,2.89,0,0,1,167.07.53c2.27,0,3.6,2.3,2.29,4L159,17.55V27.81a3,3,0,0,1-5.89,0V17.55L142.82,4.49C141.5,2.83,142.83.53,145.11.53Z"/></g></g></svg>